<svg viewBox="0 0 139 60" xmlns="http://www.w3.org/2000/svg" xmlns:xlink="http://www.w3.org/1999/xlink" width="139.000000" height="60.000000" fill="none">
	<defs>
		<linearGradient id="paint_linear_0" x1="20.1481857" x2="41.4328156" y1="9.4384594" y2="30.7229767" gradientUnits="userSpaceOnUse">
			<stop stop-color="rgb(254,244,139)" offset="0" stop-opacity="1" />
			<stop stop-color="rgb(253,242,134)" offset="0.1646" stop-opacity="1" />
			<stop stop-color="rgb(253,238,122)" offset="0.335200012" stop-opacity="1" />
			<stop stop-color="rgb(252,231,101)" offset="0.508599997" stop-opacity="1" />
			<stop stop-color="rgb(252,222,72)" offset="0.683899999" stop-opacity="1" />
			<stop stop-color="rgb(251,209,35)" offset="0.858900011" stop-opacity="1" />
			<stop stop-color="rgb(250,198,0)" offset="1" stop-opacity="1" />
		</linearGradient>
		<linearGradient id="paint_linear_1" x1="33.0793304" x2="42.1005478" y1="20.5652466" y2="24.3509216" gradientUnits="userSpaceOnUse">
			<stop stop-color="rgb(254,151,56)" offset="0" stop-opacity="0" />
			<stop stop-color="rgb(254,151,56)" offset="0.120700002" stop-opacity="0.0160000008" />
			<stop stop-color="rgb(254,151,56)" offset="0.245900005" stop-opacity="0.0649999976" />
			<stop stop-color="rgb(254,151,56)" offset="0.373100013" stop-opacity="0.147" />
			<stop stop-color="rgb(254,151,56)" offset="0.501800001" stop-opacity="0.261999995" />
			<stop stop-color="rgb(254,151,56)" offset="0.631699979" stop-opacity="0.409999996" />
			<stop stop-color="rgb(254,151,56)" offset="0.762499988" stop-opacity="0.589999974" />
			<stop stop-color="rgb(254,151,56)" offset="0.891600013" stop-opacity="0.800000012" />
			<stop stop-color="rgb(254,151,56)" offset="1" stop-opacity="1" />
		</linearGradient>
		<linearGradient id="paint_linear_2" x1="29.9999962" x2="29.9999962" y1="25.7612" y2="31.2760868" gradientUnits="userSpaceOnUse">
			<stop stop-color="rgb(254,151,56)" offset="0" stop-opacity="0" />
			<stop stop-color="rgb(254,151,56)" offset="0.120700002" stop-opacity="0.0160000008" />
			<stop stop-color="rgb(254,151,56)" offset="0.245900005" stop-opacity="0.0649999976" />
			<stop stop-color="rgb(254,151,56)" offset="0.373100013" stop-opacity="0.147" />
			<stop stop-color="rgb(254,151,56)" offset="0.501800001" stop-opacity="0.261999995" />
			<stop stop-color="rgb(254,151,56)" offset="0.631699979" stop-opacity="0.409999996" />
			<stop stop-color="rgb(254,151,56)" offset="0.762499988" stop-opacity="0.589999974" />
			<stop stop-color="rgb(254,151,56)" offset="0.891600013" stop-opacity="0.800000012" />
			<stop stop-color="rgb(254,151,56)" offset="1" stop-opacity="1" />
		</linearGradient>
		<linearGradient id="paint_linear_3" x1="20.716507" x2="31.0263786" y1="9.45869541" y2="35.8779106" gradientUnits="userSpaceOnUse">
			<stop stop-color="rgb(254,151,56)" offset="0" stop-opacity="0" />
			<stop stop-color="rgb(254,151,56)" offset="0.120700002" stop-opacity="0.0160000008" />
			<stop stop-color="rgb(254,151,56)" offset="0.245900005" stop-opacity="0.0649999976" />
			<stop stop-color="rgb(254,151,56)" offset="0.373100013" stop-opacity="0.147" />
			<stop stop-color="rgb(254,151,56)" offset="0.501800001" stop-opacity="0.261999995" />
			<stop stop-color="rgb(254,151,56)" offset="0.631699979" stop-opacity="0.409999996" />
			<stop stop-color="rgb(254,151,56)" offset="0.762499988" stop-opacity="0.589999974" />
			<stop stop-color="rgb(254,151,56)" offset="0.891600013" stop-opacity="0.800000012" />
			<stop stop-color="rgb(254,151,56)" offset="1" stop-opacity="1" />
		</linearGradient>
		<linearGradient id="paint_linear_4" x1="25.736145" x2="36.0461273" y1="7.49979115" y2="33.919014" gradientUnits="userSpaceOnUse">
			<stop stop-color="rgb(254,151,56)" offset="0" stop-opacity="0" />
			<stop stop-color="rgb(254,151,56)" offset="0.120700002" stop-opacity="0.0160000008" />
			<stop stop-color="rgb(254,151,56)" offset="0.245900005" stop-opacity="0.0649999976" />
			<stop stop-color="rgb(254,151,56)" offset="0.373100013" stop-opacity="0.147" />
			<stop stop-color="rgb(254,151,56)" offset="0.501800001" stop-opacity="0.261999995" />
			<stop stop-color="rgb(254,151,56)" offset="0.631699979" stop-opacity="0.409999996" />
			<stop stop-color="rgb(254,151,56)" offset="0.762499988" stop-opacity="0.589999974" />
			<stop stop-color="rgb(254,151,56)" offset="0.891600013" stop-opacity="0.800000012" />
			<stop stop-color="rgb(254,151,56)" offset="1" stop-opacity="1" />
		</linearGradient>
		<linearGradient id="paint_linear_5" x1="23.9011555" x2="37.0766411" y1="34.693821" y2="47.8693085" gradientUnits="userSpaceOnUse">
			<stop stop-color="rgb(54,146,188)" offset="0" stop-opacity="1" />
			<stop stop-color="rgb(49,144,186)" offset="0.270200014" stop-opacity="1" />
			<stop stop-color="rgb(37,138,183)" offset="0.550199986" stop-opacity="1" />
			<stop stop-color="rgb(16,129,178)" offset="0.833700001" stop-opacity="1" />
			<stop stop-color="rgb(1,123,174)" offset="1" stop-opacity="1" />
		</linearGradient>
		<linearGradient id="paint_linear_6" x1="33.8539238" x2="36.9964752" y1="44.2541504" y2="44.2541504" gradientUnits="userSpaceOnUse">
			<stop stop-color="rgb(59,77,84)" offset="0" stop-opacity="0" />
			<stop stop-color="rgb(59,77,84)" offset="0.213200003" stop-opacity="0.0500000007" />
			<stop stop-color="rgb(59,77,84)" offset="0.434199989" stop-opacity="0.197999999" />
			<stop stop-color="rgb(59,77,84)" offset="0.658699989" stop-opacity="0.444000006" />
			<stop stop-color="rgb(59,77,84)" offset="0.884299994" stop-opacity="0.787999988" />
			<stop stop-color="rgb(59,77,84)" offset="1" stop-opacity="1" />
		</linearGradient>
		<linearGradient id="paint_linear_7" x1="33.7465096" x2="27.9410152" y1="44.2541504" y2="44.2541504" gradientUnits="userSpaceOnUse">
			<stop stop-color="rgb(54,146,188)" offset="0" stop-opacity="1" />
			<stop stop-color="rgb(49,144,186)" offset="0.270200014" stop-opacity="1" />
			<stop stop-color="rgb(37,138,183)" offset="0.550199986" stop-opacity="1" />
			<stop stop-color="rgb(16,129,178)" offset="0.833700001" stop-opacity="1" />
			<stop stop-color="rgb(1,123,174)" offset="1" stop-opacity="1" />
		</linearGradient>
		<linearGradient id="paint_linear_8" x1="29.9999924" x2="29.9999924" y1="37.198719" y2="34.4059486" gradientUnits="userSpaceOnUse">
			<stop stop-color="rgb(59,77,84)" offset="0" stop-opacity="0" />
			<stop stop-color="rgb(59,77,84)" offset="0.213200003" stop-opacity="0.0500000007" />
			<stop stop-color="rgb(59,77,84)" offset="0.434199989" stop-opacity="0.197999999" />
			<stop stop-color="rgb(59,77,84)" offset="0.658699989" stop-opacity="0.444000006" />
			<stop stop-color="rgb(59,77,84)" offset="0.884299994" stop-opacity="0.787999988" />
			<stop stop-color="rgb(59,77,84)" offset="1" stop-opacity="1" />
		</linearGradient>
		<linearGradient id="paint_linear_9" x1="26.3360634" x2="34.7305679" y1="51.5005455" y2="51.5005455" gradientUnits="userSpaceOnUse">
			<stop stop-color="rgb(255,223,207)" offset="0" stop-opacity="1" />
			<stop stop-color="rgb(255,219,202)" offset="0.245299995" stop-opacity="1" />
			<stop stop-color="rgb(255,208,190)" offset="0.49939999" stop-opacity="1" />
			<stop stop-color="rgb(255,190,169)" offset="0.756600022" stop-opacity="1" />
			<stop stop-color="rgb(255,167,143)" offset="1" stop-opacity="1" />
		</linearGradient>
		<linearGradient id="paint_linear_10" x1="31.9753075" x2="34.1501122" y1="51.5130157" y2="53.0031357" gradientUnits="userSpaceOnUse">
			<stop stop-color="rgb(248,149,128)" offset="0" stop-opacity="0" />
			<stop stop-color="rgb(246,148,127)" offset="0.137500003" stop-opacity="0.0209999997" />
			<stop stop-color="rgb(243,145,124)" offset="0.280099988" stop-opacity="0.0839999989" />
			<stop stop-color="rgb(238,142,120)" offset="0.425099999" stop-opacity="0.189999998" />
			<stop stop-color="rgb(230,136,115)" offset="0.571699977" stop-opacity="0.337000012" />
			<stop stop-color="rgb(221,130,107)" offset="0.719600022" stop-opacity="0.527999997" />
			<stop stop-color="rgb(209,121,99)" offset="0.866299987" stop-opacity="0.757000029" />
			<stop stop-color="rgb(197,113,90)" offset="1" stop-opacity="1" />
		</linearGradient>
		<linearGradient id="paint_linear_11" x1="28.7191048" x2="30.6858807" y1="56.4324684" y2="56.4324684" gradientUnits="userSpaceOnUse">
			<stop stop-color="rgb(118,110,110)" offset="0" stop-opacity="1" />
			<stop stop-color="rgb(113,107,107)" offset="0.249300003" stop-opacity="1" />
			<stop stop-color="rgb(101,100,100)" offset="0.507600009" stop-opacity="1" />
			<stop stop-color="rgb(80,87,87)" offset="0.768999994" stop-opacity="1" />
			<stop stop-color="rgb(56,73,73)" offset="1" stop-opacity="1" />
		</linearGradient>
		<linearGradient id="paint_linear_12" x1="29.9999924" x2="29.9999924" y1="30.7344627" y2="34.5102921" gradientUnits="userSpaceOnUse">
			<stop stop-color="rgb(245,251,255)" offset="0" stop-opacity="1" />
			<stop stop-color="rgb(240,248,254)" offset="0.241400003" stop-opacity="1" />
			<stop stop-color="rgb(228,242,254)" offset="0.491600007" stop-opacity="1" />
			<stop stop-color="rgb(207,232,254)" offset="0.745700002" stop-opacity="1" />
			<stop stop-color="rgb(179,218,254)" offset="1" stop-opacity="1" />
		</linearGradient>
		<linearGradient id="paint_linear_13" x1="9.20350933" x2="9.20350933" y1="14.3313303" y2="16.0131836" gradientUnits="userSpaceOnUse">
			<stop stop-color="rgb(254,151,56)" offset="0" stop-opacity="1" />
			<stop stop-color="rgb(253,146,54)" offset="0.239600003" stop-opacity="1" />
			<stop stop-color="rgb(253,134,51)" offset="0.487800002" stop-opacity="1" />
			<stop stop-color="rgb(253,113,45)" offset="0.739899993" stop-opacity="1" />
			<stop stop-color="rgb(253,84,38)" offset="0.993399978" stop-opacity="1" />
			<stop stop-color="rgb(253,84,38)" offset="1" stop-opacity="1" />
		</linearGradient>
		<linearGradient id="paint_linear_14" x1="11.2854528" x2="11.2854528" y1="24.1672783" y2="26.6728325" gradientUnits="userSpaceOnUse">
			<stop stop-color="rgb(254,151,56)" offset="0" stop-opacity="1" />
			<stop stop-color="rgb(253,146,54)" offset="0.239600003" stop-opacity="1" />
			<stop stop-color="rgb(253,134,51)" offset="0.487800002" stop-opacity="1" />
			<stop stop-color="rgb(253,113,45)" offset="0.739899993" stop-opacity="1" />
			<stop stop-color="rgb(253,84,38)" offset="0.993399978" stop-opacity="1" />
			<stop stop-color="rgb(253,84,38)" offset="1" stop-opacity="1" />
		</linearGradient>
		<linearGradient id="paint_linear_15" x1="11.1522446" x2="11.1522446" y1="3.92378831" y2="6.40363884" gradientUnits="userSpaceOnUse">
			<stop stop-color="rgb(254,151,56)" offset="0" stop-opacity="1" />
			<stop stop-color="rgb(253,146,54)" offset="0.239600003" stop-opacity="1" />
			<stop stop-color="rgb(253,134,51)" offset="0.487800002" stop-opacity="1" />
			<stop stop-color="rgb(253,113,45)" offset="0.739899993" stop-opacity="1" />
			<stop stop-color="rgb(253,84,38)" offset="0.993399978" stop-opacity="1" />
			<stop stop-color="rgb(253,84,38)" offset="1" stop-opacity="1" />
		</linearGradient>
		<linearGradient id="paint_linear_16" x1="50.7964859" x2="50.7964859" y1="14.3313303" y2="16.0131836" gradientUnits="userSpaceOnUse">
			<stop stop-color="rgb(254,151,56)" offset="0" stop-opacity="1" />
			<stop stop-color="rgb(253,146,54)" offset="0.239600003" stop-opacity="1" />
			<stop stop-color="rgb(253,134,51)" offset="0.487800002" stop-opacity="1" />
			<stop stop-color="rgb(253,113,45)" offset="0.739899993" stop-opacity="1" />
			<stop stop-color="rgb(253,84,38)" offset="0.993399978" stop-opacity="1" />
			<stop stop-color="rgb(253,84,38)" offset="1" stop-opacity="1" />
		</linearGradient>
		<linearGradient id="paint_linear_17" x1="48.7145386" x2="48.7145386" y1="24.1671696" y2="26.6728325" gradientUnits="userSpaceOnUse">
			<stop stop-color="rgb(254,151,56)" offset="0" stop-opacity="1" />
			<stop stop-color="rgb(253,146,54)" offset="0.239600003" stop-opacity="1" />
			<stop stop-color="rgb(253,134,51)" offset="0.487800002" stop-opacity="1" />
			<stop stop-color="rgb(253,113,45)" offset="0.739899993" stop-opacity="1" />
			<stop stop-color="rgb(253,84,38)" offset="0.993399978" stop-opacity="1" />
			<stop stop-color="rgb(253,84,38)" offset="1" stop-opacity="1" />
		</linearGradient>
		<linearGradient id="paint_linear_18" x1="48.8477707" x2="48.8477707" y1="3.92378831" y2="6.40363884" gradientUnits="userSpaceOnUse">
			<stop stop-color="rgb(254,151,56)" offset="0" stop-opacity="1" />
			<stop stop-color="rgb(253,146,54)" offset="0.239600003" stop-opacity="1" />
			<stop stop-color="rgb(253,134,51)" offset="0.487800002" stop-opacity="1" />
			<stop stop-color="rgb(253,113,45)" offset="0.739899993" stop-opacity="1" />
			<stop stop-color="rgb(253,84,38)" offset="0.993399978" stop-opacity="1" />
			<stop stop-color="rgb(253,84,38)" offset="1" stop-opacity="1" />
		</linearGradient>
	</defs>
	<rect id="fi_15563377" width="139.000000" height="60.000000" x="0.000000" y="0.000000" fill="rgb(255,255,255)" fill-opacity="0" />
	<g id="Group">
		<path id="Vector" d="M44.2187 16.0546C44.2187 8.28904 37.8531 2 30 2C22.136 2 15.7704 8.31091 15.7813 16.0765C15.7922 20.1452 17.5422 23.7984 20.3313 26.3577C22.2563 28.1187 23.3828 30.5577 23.3828 33.1499L23.3828 35.8952L36.6172 35.8952L36.6172 33.1936C36.6172 30.6015 37.7328 28.1296 39.6578 26.3687C42.4687 23.7984 44.2187 20.1343 44.2187 16.0546Z" fill="url(#paint_linear_0)" fill-rule="nonzero" />
		<path id="Vector" d="M30 2C28.4469 2 26.9594 2.25156 25.5594 2.7L25.5594 35.8952L36.6172 35.8952L36.6172 33.1936C36.6172 30.6015 37.7328 28.1296 39.6578 26.3687C42.4578 23.7984 44.2187 20.1343 44.2187 16.0546C44.2187 8.28904 37.8531 2 30 2Z" fill="url(#paint_linear_1)" fill-rule="nonzero" />
		<path id="Vector" d="M15.7813 16.0765C15.7922 20.1453 17.5422 23.7984 20.3313 26.3577C22.2563 28.1187 23.3828 30.5577 23.3828 33.1499L23.3828 35.8952L36.6172 35.8952L36.6172 33.1936C36.6172 30.6015 37.7328 28.1296 39.6578 26.3687C42.4578 23.7984 44.2187 20.1343 44.2187 16.0546C44.2187 15.3546 44.164 14.6656 44.0656 13.9984L15.9344 13.9984C15.825 14.6765 15.7813 15.3765 15.7813 16.0765Z" fill="url(#paint_linear_2)" fill-rule="nonzero" />
		<g id="Group">
			<path id="Vector" d="M28.7641 32.7233C28.425 32.7233 28.1406 32.4499 28.1406 32.0999L28.1406 29.6499C28.1406 28.3265 27.6156 27.0577 26.675 26.1171L26.4781 25.9202C25.4172 24.8593 24.8375 23.4484 24.8375 21.9499L24.8375 19.5656C24.8375 19.2265 25.111 18.9421 25.461 18.9421C25.8 18.9421 26.0844 19.2156 26.0844 19.5656L26.0844 21.6984C26.0844 23.0218 26.6094 24.2906 27.55 25.2312L27.7469 25.428C28.8078 26.489 29.3875 27.8999 29.3875 29.3983L29.3875 32.1108C29.3766 32.4499 29.1031 32.7233 28.7641 32.7233Z" fill="url(#paint_linear_3)" fill-rule="nonzero" />
			<path id="Vector" d="M31.2359 32.7233C31.575 32.7233 31.8594 32.4499 31.8594 32.0999L31.8594 29.6499C31.8594 28.3265 32.3844 27.0577 33.325 26.1171L33.5219 25.9202C34.5828 24.8593 35.1625 23.4484 35.1625 21.9499L35.1625 19.5656C35.1625 19.2265 34.889 18.9421 34.5391 18.9421C34.2 18.9421 33.9156 19.2156 33.9156 19.5656L33.9156 21.6984C33.9156 23.0218 33.3906 24.2905 32.45 25.2312L32.2531 25.428C31.1922 26.489 30.6125 27.8999 30.6125 29.3983L30.6125 32.1108C30.6234 32.4499 30.8969 32.7233 31.2359 32.7233Z" fill="url(#paint_linear_4)" fill-rule="nonzero" />
		</g>
		<g id="Group">
			<path id="Vector" d="M36.989 33.4015L36.989 47.303C36.989 47.6311 36.9562 47.9592 36.8797 48.2764L30 55.1014L23.1203 48.2873C23.0547 47.9701 23.011 47.642 23.011 47.3139L23.011 33.4015L36.989 33.4015Z" fill="url(#paint_linear_5)" fill-rule="nonzero" />
			<path id="Vector" d="M28.9172 54.0295L30 55.1014L36.8797 48.2873C36.9453 47.9702 36.989 47.642 36.989 47.3139L36.989 33.4015L28.9172 33.4015L28.9172 54.0295Z" fill="url(#paint_linear_6)" fill-rule="nonzero" />
			<path id="Vector" d="M32.6687 33.4015L32.6687 47.303L32.6687 47.3139C32.6687 47.9045 32.5484 48.4842 32.3406 49.0311L30 55.1014L27.6594 49.0311C27.4516 48.4842 27.3313 47.9045 27.3313 47.3139L27.3313 47.303L27.3313 33.4015L32.6687 33.4015Z" fill="url(#paint_linear_7)" fill-rule="nonzero" />
			<path id="Vector" d="M23.011 33.4015L36.989 33.4015L36.989 43.978L23.011 43.978L23.011 33.4015Z" fill="url(#paint_linear_8)" fill-rule="nonzero" />
			<path id="Vector" d="M36.8797 48.2873C36.7375 48.9327 36.475 49.5342 36.0812 50.0701L32.3406 55.1889L27.6375 55.1889L23.8969 50.0701C23.5032 49.5342 23.2407 48.9217 23.0985 48.2873L23.175 48.2217C23.711 47.6858 24.586 47.6858 25.1328 48.2217L26.0953 49.1842C26.6313 49.7201 27.5063 49.7201 28.0531 49.1842L29.0156 48.2217C29.5516 47.6858 30.4266 47.6858 30.9734 48.2217L31.9359 49.1842C32.4719 49.7201 33.3469 49.7201 33.8937 49.1842L34.8562 48.2217C35.3922 47.6858 36.2672 47.6858 36.814 48.2217L36.8797 48.2873Z" fill="url(#paint_linear_9)" fill-rule="nonzero" />
			<path id="Vector" d="M36.8797 48.2873C36.7375 48.9327 36.475 49.5342 36.0812 50.0701L32.3406 55.1889L27.6375 55.1889L23.8969 50.0701C23.5032 49.5342 23.2407 48.9217 23.0985 48.2873L23.175 48.2217C23.711 47.6858 24.586 47.6858 25.1328 48.2217L26.0953 49.1842C26.6313 49.7201 27.5063 49.7201 28.0531 49.1842L29.0156 48.2217C29.5516 47.6858 30.4266 47.6858 30.9734 48.2217L31.9359 49.1842C32.4719 49.7201 33.3469 49.7201 33.8937 49.1842L34.8562 48.2217C35.3922 47.6858 36.2672 47.6858 36.814 48.2217L36.8797 48.2873Z" fill="url(#paint_linear_10)" fill-rule="nonzero" />
			<path id="Vector" d="M30 54.8608C29.125 54.8608 28.3266 54.9811 27.6484 55.1889L29.5297 57.7592C29.7594 58.0764 30.2406 58.0764 30.4703 57.7592L32.3515 55.1889C31.6734 54.9811 30.875 54.8608 30 54.8608Z" fill="url(#paint_linear_11)" fill-rule="nonzero" />
		</g>
		<path id="Vector" d="M23.2625 30.3827L36.7484 30.3827C37.9625 30.3827 38.9468 31.3671 38.9468 32.5811C38.9468 33.7952 37.9625 34.7796 36.7484 34.7796L23.2625 34.7796C22.0485 34.7796 21.0641 33.7952 21.0641 32.5811C21.0531 31.3671 22.0375 30.3827 23.2625 30.3827Z" fill="url(#paint_linear_12)" fill-rule="nonzero" />
		<g id="Group">
			<g id="Group">
				<path id="Vector" d="M6.74696 15.2562C6.74696 14.6546 7.23914 14.1734 7.82976 14.1734L10.5641 14.1734C11.1657 14.1734 11.6469 14.6656 11.6469 15.2562C11.6469 15.8578 11.1548 16.339 10.5641 16.339L7.82976 16.339C7.23914 16.3499 6.74696 15.8578 6.74696 15.2562Z" fill="url(#paint_linear_13)" fill-rule="nonzero" />
				<path id="Vector" d="M9.02194 26.4999C8.79226 25.9421 9.04382 25.3077 9.60163 25.078L12.1282 24.0171C12.686 23.7874 13.3204 24.039 13.5501 24.5968C13.7797 25.1546 13.5282 25.789 12.9704 26.0187L10.4438 27.0796C9.89694 27.3202 9.25163 27.0577 9.02194 26.4999Z" fill="url(#paint_linear_14)" fill-rule="nonzero" />
				<path id="Vector" d="M9.47039 5.78436C8.91258 5.55467 8.65008 4.9203 8.86883 4.36249C9.09852 3.80468 9.73289 3.54218 10.2907 3.76093L12.8282 4.79999C13.386 5.02968 13.6485 5.66405 13.4298 6.22186C13.2001 6.77967 12.5657 7.04217 12.0079 6.82342C12.0079 6.81248 9.47039 5.78436 9.47039 5.78436Z" fill="url(#paint_linear_15)" fill-rule="nonzero" />
			</g>
			<g id="Group">
				<path id="Vector" d="M53.253 15.2562C53.253 14.6546 52.7609 14.1734 52.1702 14.1734L49.4359 14.1734C48.8343 14.1734 48.3531 14.6656 48.3531 15.2562C48.3531 15.8578 48.8452 16.339 49.4359 16.339L52.1702 16.339C52.7609 16.3499 53.253 15.8578 53.253 15.2562Z" fill="url(#paint_linear_16)" fill-rule="nonzero" />
				<path id="Vector" d="M50.978 26.4999C51.2077 25.9421 50.9562 25.3077 50.3984 25.078L47.8718 24.0171C47.314 23.7874 46.6796 24.039 46.4499 24.5968C46.2203 25.1546 46.4718 25.789 47.0296 26.0187L49.5562 27.0796C50.1031 27.3202 50.7484 27.0577 50.978 26.4999Z" fill="url(#paint_linear_17)" fill-rule="nonzero" />
				<path id="Vector" d="M50.5296 5.78436C51.0874 5.55467 51.3499 4.9203 51.1312 4.36249C50.9015 3.80468 50.2671 3.54218 49.7093 3.76093L47.1718 4.79999C46.614 5.02968 46.3515 5.66405 46.5703 6.22186C46.7999 6.77967 47.4343 7.04217 47.9921 6.82342L50.5296 5.78436Z" fill="url(#paint_linear_18)" fill-rule="nonzero" />
			</g>
		</g>
	</g>
	<g id="Group 4">
		<path id="KV" d="M63 41L63 5L72.7303 5L72.7303 19.5547L73.2204 19.5547L84.0007 5L95.3411 5L83.2307 21.0312L95.6211 41L84.0007 41L75.9505 27.5L72.7303 31.7188L72.7303 41L63 41Z" fill="rgb(70,145,101)" fill-rule="evenodd" />
		<path id="KV" d="M108.029 5L115.379 30.3828L115.659 30.3828L123.01 5L134 5L122.17 41L108.869 41L97.0387 5L108.029 5Z" fill="rgb(70,145,101)" fill-rule="nonzero" />
		<path id="KV" d="M108.029 5L115.379 30.3828L115.659 30.3828L123.01 5L134 5L122.17 41L108.869 41L97.0387 5L108.029 5Z" fill="rgb(70,145,101)" fill-rule="nonzero" />
		<path id="Knowledge Vault" d="M63 54.1687L63 48L63.9699 48L63.9699 50.9458L64.0484 50.9458L66.7448 48L67.9659 48L65.3731 50.7771L67.9753 54.1687L66.8076 54.1687L64.7296 51.4127L63.9699 52.25L63.9699 54.1687L63 54.1687ZM87.4895 48L87.4895 54.1687L86.551 54.1687L86.551 48L87.4895 48ZM95.745 54.259C95.3558 54.259 95.0084 54.1637 94.7029 53.9729C94.3995 53.7801 94.1609 53.506 93.9872 53.1506Q93.7298 52.6145 93.7298 51.8645C93.7298 51.3645 93.8167 50.9367 93.9903 50.5813C94.1661 50.2259 94.4068 49.9538 94.7123 49.7651C95.0178 49.5763 95.3642 49.4819 95.7513 49.4819C96.0506 49.4819 96.2912 49.5301 96.4733 49.6265C96.6574 49.7209 96.7997 49.8313 96.9002 49.9578Q97.054 50.1476 97.1387 50.2922L97.1952 50.2922L97.1952 48L98.1338 48L98.1338 54.1687L97.2172 54.1687L97.2172 53.4488L97.1387 53.4488C97.0822 53.5472 97.0006 53.6596 96.8939 53.7861Q96.737 53.9759 96.4607 54.1175C96.2766 54.2118 96.038 54.259 95.745 54.259ZM113.093 48L114.883 53.0241L114.955 53.0241L116.744 48L117.792 48L115.479 54.1687L114.358 54.1687L112.045 48L113.093 48ZM129.399 48L129.399 54.1687L128.46 54.1687L128.46 48L129.399 48ZM130.985 48.4337L131.923 48.4337L131.923 49.5422L130.985 49.5422L130.985 48.4337ZM69.7331 51.4217L69.7331 54.1687L68.7946 54.1687L68.7946 49.5422L69.6954 49.5422L69.6954 50.2952L69.7551 50.2952Q69.8194 50.1531 69.9119 50.0327Q70.0586 49.8415 70.2762 49.7048Q70.634 49.4819 71.177 49.4819Q71.6699 49.4819 72.0403 49.6807C72.2872 49.8112 72.4787 50.006 72.6147 50.2651Q72.8187 50.6536 72.8187 51.2259L72.8187 54.1687L71.8802 54.1687L71.8802 51.3343C71.8802 50.999 71.7891 50.7369 71.6071 50.5482C71.425 50.3574 71.1749 50.262 70.8569 50.262C70.6392 50.262 70.4457 50.3072 70.2762 50.3976C70.1087 50.488 69.9759 50.6205 69.8775 50.7952Q69.7331 51.0542 69.7331 51.4217ZM76.1084 54.262Q75.4399 54.262 74.9392 53.9722Q74.9321 53.968 74.925 53.9639C74.5881 53.7651 74.3265 53.4869 74.1402 53.1295Q73.8609 52.5934 73.8609 51.8765C73.8609 51.3966 73.954 50.9769 74.1402 50.6175C74.3265 50.258 74.5881 49.9789 74.925 49.7801Q74.9295 49.7775 74.934 49.7748Q74.9366 49.7733 74.9392 49.7718Q75.4399 49.4819 76.1084 49.4819Q76.7769 49.4819 77.2775 49.7718Q77.2801 49.7733 77.2827 49.7748Q77.2873 49.7775 77.2918 49.7801Q77.4879 49.8959 77.65 50.0479Q77.9056 50.2876 78.0765 50.6175Q78.3559 51.1566 78.3559 51.8765C78.3559 52.3544 78.2628 52.7721 78.0765 53.1295C77.8903 53.4869 77.6287 53.7651 77.2918 53.9639Q77.2888 53.9656 77.2858 53.9674Q77.2816 53.9698 77.2775 53.9722Q76.7769 54.262 76.1084 54.262ZM90.8302 54.262C90.3551 54.262 89.946 54.1647 89.6028 53.9699C89.2617 53.7731 88.9981 53.497 88.8118 53.1416Q88.5356 52.6054 88.5356 51.8855C88.5356 51.4116 88.6277 50.994 88.8118 50.6325C88.9981 50.2711 89.2576 49.989 89.5903 49.7861C89.9251 49.5833 90.3164 49.4819 90.7643 49.4819C91.0363 49.4819 91.3 49.5251 91.5553 49.6114C91.8106 49.6978 92.0397 49.8333 92.2427 50.0181C92.4457 50.2028 92.6058 50.4428 92.723 50.738Q92.8988 51.1777 92.8988 51.8072L92.8988 52.1265L89.4718 52.1265Q89.471 52.0952 89.471 52.0633L89.471 51.5361Q89.471 51.4936 89.4734 51.4518L91.979 51.4518C91.979 51.2149 91.9288 51.005 91.8284 50.8223C91.7279 50.6376 91.5867 50.492 91.4046 50.3855C91.2246 50.2791 91.0133 50.2259 90.7705 50.2259C90.5069 50.2259 90.2767 50.2882 90.08 50.4127C89.8853 50.5351 89.7347 50.6958 89.628 50.8946Q89.5731 50.9977 89.5375 51.107Q89.4836 51.2723 89.4734 51.4518L89.0661 51.4518L89.0661 52.1265L89.4718 52.1265C89.4791 52.4085 89.5353 52.6505 89.6405 52.8524C89.7556 53.0693 89.9157 53.2349 90.1208 53.3494C90.3259 53.4618 90.5655 53.5181 90.8396 53.5181C91.0175 53.5181 91.1797 53.494 91.3261 53.4458C91.4726 53.3956 91.5992 53.3213 91.706 53.2229C91.8127 53.1245 91.8943 53.003 91.9508 52.8584L92.8391 53.012C92.768 53.2631 92.6403 53.4829 92.4562 53.6717C92.2741 53.8584 92.045 54.004 91.7687 54.1084C91.4946 54.2108 91.1817 54.262 90.8302 54.262ZM101.495 56C101.112 56 100.782 55.9518 100.506 55.8554C100.232 55.759 100.008 55.6315 99.8343 55.4729C99.6606 55.3143 99.5309 55.1406 99.4451 54.9518L100.252 54.6325C100.308 54.7209 100.384 54.8143 100.478 54.9127C100.574 55.0131 100.704 55.0984 100.867 55.1687C101.032 55.239 101.245 55.2741 101.504 55.2741C101.86 55.2741 102.154 55.1908 102.386 55.0241Q102.467 54.9667 102.53 54.8933Q102.735 54.651 102.735 54.2349L102.735 53.3253L102.675 53.3253C102.619 53.4237 102.537 53.5331 102.43 53.6536C102.326 53.7741 102.181 53.8785 101.997 53.9669C101.813 54.0552 101.573 54.0994 101.278 54.0994C100.897 54.0994 100.554 54.0141 100.249 53.8434C99.9453 53.6707 99.7046 53.4167 99.5267 53.0813Q99.263 52.5753 99.263 51.8373C99.263 51.3454 99.3499 50.9237 99.5236 50.5723Q99.7339 50.1518 100.068 49.8885L100.068 49.8884Q100.153 49.8217 100.246 49.7651C100.551 49.5763 100.897 49.4819 101.285 49.4819C101.584 49.4819 101.826 49.5301 102.01 49.6265C102.194 49.7209 102.337 49.8313 102.44 49.9578C102.544 50.0843 102.625 50.1958 102.681 50.2922L102.75 50.2922L102.75 49.5422L103.67 49.5422L103.67 54.2711C103.67 54.6687 103.574 54.995 103.381 55.25C103.189 55.505 102.928 55.6938 102.6 55.8163C102.273 55.9388 101.905 56 101.495 56ZM107.007 54.262C106.532 54.262 106.123 54.1647 105.78 53.9699C105.438 53.7731 105.175 53.497 104.989 53.1416C104.804 52.7841 104.712 52.3655 104.712 51.8855C104.712 51.4116 104.804 50.994 104.989 50.6325C105.175 50.2711 105.434 49.989 105.767 49.7861C106.102 49.5833 106.493 49.4819 106.941 49.4819C107.213 49.4819 107.477 49.5251 107.732 49.6114Q107.882 49.6621 108.02 49.7353L108.02 49.7354Q108.234 49.8494 108.419 50.0181C108.622 50.2028 108.783 50.4428 108.9 50.738Q109.075 51.1777 109.075 51.8072L109.075 52.1265L105.649 52.1265C105.648 52.1056 105.648 52.0846 105.648 52.0633L105.648 51.5361C105.648 51.5078 105.649 51.4797 105.65 51.4518L108.156 51.4518Q108.156 51.1014 108.009 50.83Q108.007 50.8261 108.005 50.8223C107.905 50.6376 107.763 50.492 107.581 50.3855C107.401 50.2791 107.19 50.2259 106.947 50.2259C106.684 50.2259 106.453 50.2882 106.257 50.4127C106.062 50.5351 105.911 50.6958 105.805 50.8946C105.713 51.0672 105.661 51.2529 105.65 51.4518L105.243 51.4518L105.243 52.1265L105.649 52.1265C105.656 52.4085 105.712 52.6505 105.817 52.8524C105.932 53.0693 106.092 53.2349 106.298 53.3494C106.503 53.4618 106.742 53.5181 107.016 53.5181C107.194 53.5181 107.356 53.494 107.503 53.4458C107.649 53.3956 107.776 53.3213 107.883 53.2229C107.989 53.1245 108.071 53.003 108.128 52.8584L109.016 53.012C108.945 53.2631 108.817 53.4829 108.633 53.6717C108.451 53.8584 108.222 54.004 107.945 54.1084C107.671 54.2108 107.358 54.262 107.007 54.262ZM119.574 54.2711C119.268 54.2711 118.992 54.2169 118.745 54.1084C118.498 53.998 118.303 53.8384 118.158 53.6295C118.016 53.4207 117.945 53.1647 117.945 52.8614C117.945 52.6004 117.997 52.3855 118.102 52.2169C118.206 52.0482 118.348 51.9147 118.525 51.8163C118.703 51.7179 118.902 51.6436 119.122 51.5934C119.342 51.5432 119.565 51.505 119.794 51.4789C120.082 51.4468 120.317 51.4207 120.497 51.4006C120.677 51.3785 120.807 51.3434 120.889 51.2952C120.971 51.247 121.011 51.1687 121.011 51.0602L121.011 51.0392C121.011 50.7761 120.934 50.5723 120.779 50.4277Q120.55 50.2108 120.095 50.2108C119.779 50.2108 119.53 50.2781 119.348 50.4127C119.168 50.5452 119.043 50.6928 118.974 50.8554L118.092 50.6627C118.197 50.3815 118.35 50.1546 118.551 49.9819C118.753 49.8072 118.987 49.6807 119.25 49.6024C119.514 49.5221 119.791 49.4819 120.082 49.4819Q120.371 49.4819 120.694 49.5482Q120.873 49.5828 121.038 49.6498L121.038 49.6498Q121.175 49.7054 121.303 49.7831C121.494 49.8976 121.65 50.0612 121.771 50.2741C121.892 50.4849 121.953 50.759 121.953 51.0964L121.953 54.1687L121.037 54.1687L121.037 53.5361L120.999 53.5361C120.938 53.6526 120.847 53.7671 120.726 53.8795C120.604 53.992 120.449 54.0853 120.258 54.1596C120.068 54.2339 119.84 54.2711 119.574 54.2711ZM80.302 54.1687L78.8832 49.5422L79.8532 49.5422L80.798 52.9398L80.8451 52.9398L81.7931 49.5422L82.763 49.5422L83.7047 52.9247L83.7518 52.9247L84.6903 49.5422L85.6603 49.5422L84.2446 54.1687L83.2872 54.1687L82.3079 50.8283L82.2357 50.8283L81.2563 54.1687L80.302 54.1687ZM126.257 52.25L126.257 49.5422L127.199 49.5422L127.199 54.1687L126.276 54.1687L126.276 53.3675L126.226 53.3675C126.115 53.6145 125.937 53.8203 125.692 53.9849C125.45 54.1476 125.147 54.2289 124.785 54.2289C124.476 54.2289 124.201 54.1637 123.963 54.0331C123.726 53.9006 123.54 53.7048 123.404 53.4458C123.27 53.1867 123.203 52.8665 123.203 52.4849L123.203 49.5422L124.142 49.5422L124.142 52.3765Q124.142 52.7623 124.324 53.0198Q124.365 53.0779 124.415 53.1295C124.597 53.3163 124.833 53.4096 125.124 53.4096C125.3 53.4096 125.475 53.3675 125.649 53.2831Q125.729 53.2447 125.8 53.1944L125.8 53.1943Q125.965 53.0788 126.085 52.9006C126.2 52.7329 126.258 52.5207 126.258 52.2638L126.257 52.25ZM130.985 49.5422L130.985 50.2651L130.279 50.2651L130.279 49.5422L130.985 49.5422ZM131.923 50.2651L131.923 49.5422L132.912 49.5422L132.912 50.2651L131.923 50.2651ZM76.1115 53.506C76.4045 53.506 76.6472 53.4317 76.8398 53.2831C77.0323 53.1345 77.1746 52.9367 77.2667 52.6898Q77.4079 52.3193 77.4079 51.8735Q77.4079 51.4307 77.2667 51.0602C77.1746 50.8112 77.0323 50.6114 76.8398 50.4608C76.6472 50.3102 76.4045 50.2349 76.1115 50.2349C75.8165 50.2349 75.5716 50.3102 75.377 50.4608Q75.3156 50.5089 75.2608 50.5636Q75.0582 50.7662 74.947 51.0602Q74.8088 51.4307 74.8088 51.8735C74.8088 52.1707 74.8549 52.4428 74.947 52.6898Q75.0567 52.9776 75.2556 53.1764Q75.3126 53.2334 75.377 53.2831C75.5716 53.4317 75.8165 53.506 76.1115 53.506ZM95.9522 53.491C96.2222 53.491 96.4503 53.4227 96.6365 53.2861C96.8248 53.1476 96.9671 52.9558 97.0634 52.7108C97.1618 52.4659 97.2109 52.1807 97.2109 51.8554C97.2109 51.5341 97.1628 51.253 97.0665 51.012C96.9703 50.7711 96.829 50.5833 96.6428 50.4488C96.4565 50.3143 96.2263 50.247 95.9522 50.247C95.6697 50.247 95.4343 50.3173 95.2459 50.4578C95.0576 50.5984 94.9153 50.7902 94.819 51.0331C94.7249 51.2761 94.6778 51.5502 94.6778 51.8554C94.6778 52.1647 94.7259 52.4428 94.8222 52.6898C94.9184 52.9367 95.0607 53.1325 95.2491 53.2771C95.4395 53.4197 95.6739 53.491 95.9522 53.491ZM101.485 53.3524C101.755 53.3524 101.983 53.2922 102.17 53.1717C102.358 53.0492 102.5 52.8745 102.597 52.6476C102.695 52.4187 102.744 52.1446 102.744 51.8253C102.744 51.5141 102.696 51.24 102.6 51.003C102.504 50.7661 102.362 50.5813 102.176 50.4488C101.99 50.3143 101.76 50.247 101.485 50.247Q101.092 50.247 100.82 50.4291L100.819 50.4294Q100.799 50.4431 100.779 50.4578C100.591 50.5964 100.449 50.7851 100.352 51.0241Q100.211 51.3825 100.211 51.8253C100.211 52.1285 100.259 52.3946 100.355 52.6235C100.452 52.8524 100.594 53.0311 100.782 53.1596C100.973 53.2882 101.207 53.3524 101.485 53.3524ZM131.923 50.2651L131.923 52.8102C131.923 52.9849 131.951 53.1165 132.005 53.2048C132.059 53.2912 132.129 53.3504 132.215 53.3825Q132.347 53.4277 132.501 53.4277C132.576 53.4277 132.642 53.4227 132.699 53.4127C132.755 53.4026 132.799 53.3946 132.831 53.3886L133 54.1325C132.946 54.1526 132.868 54.1727 132.768 54.1928C132.667 54.2149 132.542 54.2269 132.391 54.2289C132.144 54.2329 131.914 54.1908 131.7 54.1024C131.487 54.0141 131.314 53.8775 131.183 53.6928Q130.985 53.4157 130.985 52.997L130.985 50.2651L131.923 50.2651ZM119.778 53.5482Q120.167 53.5482 120.443 53.4006C120.63 53.3022 120.771 53.1737 120.867 53.0151C120.965 52.8544 121.015 52.6827 121.015 52.5L121.015 51.9036C120.981 51.9357 120.916 51.9659 120.82 51.994C120.726 52.0201 120.618 52.0432 120.497 52.0633C120.375 52.0813 120.257 52.0984 120.142 52.1145C120.027 52.1285 119.931 52.1406 119.853 52.1506C119.671 52.1727 119.505 52.2098 119.354 52.262Q119.131 52.3404 118.996 52.488C118.908 52.5843 118.864 52.7129 118.864 52.8735C118.864 53.0964 118.95 53.2651 119.122 53.3795Q119.379 53.5482 119.778 53.5482Z" fill="rgb(0,25,49)" fill-rule="evenodd" />
	</g>
</svg>
